<svg xmlns="http://www.w3.org/2000/svg" viewBox="9 9 162 162" role="img" aria-label="Chaski">
  <path fill="#FBCA0A" d="M57 13H123V35H145V57H167V123H145V145H123V167H57V145H35V123H13V57H35V35H57Z"/>
  <path fill="#FF9830" d="M71 27H109V49H131V71H153V109H131V131H109V153H71V131H49V109H27V71H49V49H71Z"/>
  <circle cx="90" cy="90" r="42" fill="#111217"/>
  <path fill="#FBCA0A" d="M90 66H108V72H114V90H108V96H114V108H108V114H66V108H60V102H54V84H60V90H66V96H84V72H90Z"/>
  <path fill="#F46800" d="M114 78H126V90H114Z"/>
  <path fill="#111217" d="M96 78H102V84H96Z"/>
</svg>
